# xmcd
#
# Track frame offsets:
# 182
# 15990
# 31892
# 46245
# 59927
# 75255
# 89905
# 104972
# 117532
# 132822
# 146092
# 160787
# 174332
# 187907
# 200132
# 212975
# 227055
# 239332
#
# Disc length: 3408 seconds
#
#
# Revision: 0
# Processed by: cddbd v1.5.2PL0 Copyright (c) Steve Scherf et al.
# Submitted via: FreeRIP 2.95 
#
DISCID=050d4e12
DTITLE=Juanito Valderrama - El Emigrante
DYEAR=1992
DGENRE=Canción Española
TTITLE0=a
TTITLE1=b
TTITLE2=c
TTITLE3=d
TTITLE4=De Polizóm
TTITLE5=f
TTITLE6=g
TTITLE7=La Muerte Del Piyayo
TTITLE8=i
TTITLE9=j
TTITLE10=k
TTITLE11=l
TTITLE12=m
TTITLE13=n
TTITLE14=Madre Hermosa
TTITLE15=o
TTITLE16=p
TTITLE17=q
EXTD=LA COPLA Cancion Popular Española 14
EXTT0=
EXTT1=
EXTT2=
EXTT3=
EXTT4=
EXTT5=
EXTT6=
EXTT7=
EXTT8=
EXTT9=
EXTT10=
EXTT11=
EXTT12=
EXTT13=
EXTT14=
EXTT15=
EXTT16=
EXTT17=
PLAYORDER=
